<?xml version="1.0"?>
<svg xmlns:rdf="http://www.w3.org/1999/02/22-rdf-syntax-ns#" xmlns="http://www.w3.org/2000/svg" xmlns:cc="http://creativecommons.org/ns#" xmlns:xlink="http://www.w3.org/1999/xlink" xmlns:dc="http://purl.org/dc/elements/1.1/" xmlns:svg="http://www.w3.org/2000/svg" id="svg2" viewBox="0 0 536.16 132.67" version="1.1">
  <defs id="defs4">
    <linearGradient id="linearGradient2899" y2="902.48" gradientUnits="userSpaceOnUse" x2="77.189" y1="900.96" x1="347.13">
      <stop id="stop2895" stop-color="#7fff7f" offset="0"/>
      <stop id="stop2897" stop-color="#a24421" stop-opacity="0" offset="1"/>
    </linearGradient>
    <filter id="filter3685" height="1.405" width="1.0395" y="-.20248" x="-.019756" color-interpolation-filters="sRGB">
      <feGaussianBlur id="feGaussianBlur3687" stdDeviation="2.2603869"/>
    </filter>
    <linearGradient id="linearGradient3695" y2="897.85" gradientUnits="userSpaceOnUse" y1="887.83" x2="71.975" x1="341.27">
      <stop id="stop3691" stop-color="#dadada" offset="0"/>
      <stop id="stop3693" stop-color="#dadada" stop-opacity="0" offset="1"/>
    </linearGradient>
    <linearGradient id="linearGradient3710" y2="950.04" gradientUnits="userSpaceOnUse" x2="426.12" y1="855.41" x1="421.12">
      <stop id="stop3706" stop-color="#aaa" offset="0"/>
      <stop id="stop3708" stop-color="#cccccf" stop-opacity="0" offset="1"/>
    </linearGradient>
    <filter id="filter3714" color-interpolation-filters="sRGB">
      <feGaussianBlur id="feGaussianBlur3716" stdDeviation="1.1524732"/>
    </filter>
    <filter id="filter3722" color-interpolation-filters="sRGB">
      <feGaussianBlur id="feGaussianBlur3724" stdDeviation="2.2790111"/>
    </filter>
    <linearGradient id="linearGradient3732" y2="868.47" gradientUnits="userSpaceOnUse" x2="403.82" y1="926.51" x1="412.37">
      <stop id="stop3728" stop-color="#cccccf" offset="0"/>
      <stop id="stop3730" stop-color="#cccccf" stop-opacity="0" offset="1"/>
    </linearGradient>
    <filter id="filter3752" height="1.3897" width="1.0547" y="-.19487" x="-.027371" color-interpolation-filters="sRGB">
      <feGaussianBlur id="feGaussianBlur3754" stdDeviation="3.323413"/>
    </filter>
    <filter id="filter3886" height="1.7858" width="1.7151" y="-.3929" x="-.35756" color-interpolation-filters="sRGB">
      <feGaussianBlur id="feGaussianBlur3888" stdDeviation="0.7684898"/>
    </filter>
    <filter id="filter3932" height="1.4238" width="1.256" y="-.21188" x="-.12801" color-interpolation-filters="sRGB">
      <feGaussianBlur id="feGaussianBlur3934" stdDeviation="1.231751"/>
    </filter>
    <radialGradient id="radialGradient3952" gradientUnits="userSpaceOnUse" cy="917.62" cx="392.46" gradientTransform="matrix(1 -.18282 .12478 .68251 -114.5 356.88)" r="76.858">
      <stop id="stop3948" stop-color="#ff9" offset="0"/>
      <stop id="stop3950" stop-color="#faa633" offset="1"/>
    </radialGradient>
    <filter id="filter3970" color-interpolation-filters="sRGB">
      <feGaussianBlur id="feGaussianBlur3972" stdDeviation="1.9377496"/>
    </filter>
    <filter id="filter4020" height="2.0222" width="1.5048" y="-.5111" x="-.25238" color-interpolation-filters="sRGB">
      <feGaussianBlur id="feGaussianBlur4022" stdDeviation="3.891016"/>
    </filter>
    <filter id="filter4058" height="1.3173" width="1.1142" y="-.15864" x="-.057124" color-interpolation-filters="sRGB">
      <feGaussianBlur id="feGaussianBlur4060" stdDeviation="1.5317364"/>
    </filter>
    <filter id="filter4108" height="1.2384" width="1.0601" y="-.11919" x="-.030051" color-interpolation-filters="sRGB">
      <feGaussianBlur id="feGaussianBlur4110" stdDeviation="1.4419286"/>
    </filter>
    <filter id="filter4134" height="1.2538" width="1.0592" y="-.12688" x="-.029599" color-interpolation-filters="sRGB">
      <feGaussianBlur id="feGaussianBlur4136" stdDeviation="1.7856533"/>
    </filter>
    <filter id="filter4144" height="1.275" width="1.0581" y="-.1375" x="-.029075" color-interpolation-filters="sRGB">
      <feGaussianBlur id="feGaussianBlur4146" stdDeviation="1.6800341"/>
    </filter>
    <filter id="filter4150" height="1.3389" width="1.0559" y="-.16945" x="-.02796" color-interpolation-filters="sRGB">
      <feGaussianBlur id="feGaussianBlur4152" stdDeviation="1.4234471"/>
    </filter>
    <filter id="filter4220" height="1.3518" width="1.2356" y="-.17588" x="-.11781" color-interpolation-filters="sRGB">
      <feGaussianBlur id="feGaussianBlur4222" stdDeviation="3.1787178"/>
    </filter>
  </defs>
  <g id="layer2" opacity=".6" transform="translate(-71.975 -822.68)">
    <path id="path2891" d="m342.11 869.18c-10.32-9.5264-38.507 1.8556-57.715 3.3458-13.135 1.0191-26.19 3.8873-39.313 4.1822-11.691 0.26272-23.408-2.2199-35.131-2.5094-10.861-0.26818-21.872-0.45351-32.622 0.83645-10.162 1.2194-19.977 5.5473-30.112 6.6916-7.1511 0.80738-14.568-1.4662-21.748-0.83645-8.7128 0.76428-17.382 2.9609-25.93 5.0187-6.5083 1.5668-17.23 0.78602-19.238 5.8551-3.8466 9.7081-4.9968 30.718 1.6729 38.477 6.9923 8.1339 26.052 8.4131 39.313 9.2009 14.899 0.88509 30.128-4.1822 45.168-4.1822 12.005 0 24.023 4.4666 35.967 4.1822 11.476-0.27324 22.808-4.7783 34.294-5.8551 6.3577-0.59604 12.843 1.1869 19.238 0.83645 13.958-0.76485 27.877-3.8462 41.822-4.1822 9.1962-0.22159 18.384 2.0633 27.603 2.5093 8.068 0.39038 22.725 5.823 24.257 0 4.044-15.367 3.8994-53.022-7.528-63.57z" fill="url(#linearGradient2899)"/>
    <path id="path2901" opacity=".8" d="m341.66 878.21c-10.406-1.7719-38.453-0.34806-57.628 0.82291-13.113 0.80076-26.127 6.8928-39.235 7.5247-11.678 0.56289-23.409 2.9211-35.124 3.357-10.854 0.40388-21.856 0.83341-32.583 1.5948-10.14 0.71969-19.903-5.15-30.018-4.4488-7.1364 0.49468-14.569 7.5816-21.736 8.0362-8.6972 0.55169-17.337-3.4303-25.856-2.5849-6.4867 0.64367-17.206 15.517-19.162 16.782-3.7461 2.4222-4.6854 7.3564 2.0557 8.874 7.0671 1.591 26.112-8.8918 39.369-9.2779 14.894-0.43376 30.059-2.2656 45.085-2.9112 11.994-0.51533 24.045-4.8578 35.976-5.4363 11.463-0.55616 22.739 0.34243 34.204-0.401 6.3459-0.41149 12.843-2.7078 19.229-3.0637 13.938-0.77699 27.813-4.5232 41.742-5.2 9.1855-0.4463 18.388-0.30942 27.602-0.60143 8.0644-0.2556 22.762 2.8108 24.235 1.3912 3.8867-3.7464 3.3662-12.495-8.1561-14.457z" transform="matrix(1 0 0 .82223 0 155.07)" filter="url(#filter3685)" fill="url(#linearGradient3695)"/>
    <path id="path3697" opacity=".8" d="m341.66 878.21c-10.406-1.7719-38.453-0.34806-57.628 0.82291-13.113 0.80076-26.127 6.8928-39.235 7.5247-11.678 0.56289-23.409 2.9211-35.124 3.357-10.854 0.40388-21.856 0.83341-32.583 1.5948-10.14 0.71969-19.903-5.15-30.018-4.4488-7.1364 0.49468-14.569 7.5816-21.736 8.0362-8.6972 0.55169-17.337-3.4303-25.856-2.5849-6.4867 0.64367-17.206 15.517-19.162 16.782-3.7461 2.4222-4.6854 7.3564 2.0557 8.874 7.0671 1.591 26.112-8.8918 39.369-9.2779 14.894-0.43376 30.059-2.2656 45.085-2.9112 11.994-0.51533 24.045-4.8578 35.976-5.4363 11.463-0.55616 22.739 0.34243 34.204-0.401 6.3459-0.41149 12.843-2.7078 19.229-3.0637 13.938-0.77699 27.813-4.5232 41.742-5.2 9.1855-0.4463 18.388-0.30942 27.602-0.60143 8.0644-0.2556 22.762 2.8108 24.235 1.3912 3.8867-3.7464 3.3662-12.495-8.1561-14.457z" transform="matrix(.42063 .027375 -.0094715 .82192 183.04 182.38)" filter="url(#filter3685)" fill="url(#linearGradient3695)"/>
  </g>
  <g id="layer3" transform="translate(-71.975 -822.68)">
    <g id="g3936">
      <path id="path3702" d="m249.6 911c0.57132-3.8849 5.5687-8.0164 8.8719-12.421 2.6114-3.4819 5.4687-8.7898 8.8719-11.238 7.8346-5.6354 18.641-8.0669 27.799-12.421 2.8685-1.3637 5.3146-3.8419 8.2804-4.7317 2.9487-0.88461 6.4816 0.24715 9.4633-0.59146 3.3272-0.93577 6.055-3.9065 9.4633-4.7317 15.321-3.7093 31.014-7.0736 46.725-8.8719 17.016-1.9476 34.373-2.7601 51.457-2.3658 8.5459 0.19721 16.982 4.242 25.433 4.1402 7.9128-0.0953 15.768-4.5094 23.658-4.7317 6.1075-0.17204 12.181 2.7203 18.335 3.5488 4.0977 0.55161 8.2856 0.32468 12.421 0.59146 1.9767 0.12753 3.9992 0.89791 5.9146 0.59145 3.0134-0.48215 5.8233-2.5339 8.8719-2.9573 4.049-0.56235 8.4468 0.86388 12.421 0 5.0952-1.1076 9.7769-4.2008 14.786-5.9146 2.4822-0.84918 5.6001-0.41208 7.689-1.7744 2.4456-1.595 3.3252-5.6086 5.9146-7.0975 5.2968-3.0456 12.447-3.4604 17.744-6.506 2.5894-1.4889 3.4014-6.3528 5.9146-7.0975 2.8099-0.83256 7.6031 0.68839 10.055 2.3658 1.2942 0.88554 2.2011 4.1441 1.1829 5.3231-2.7277 3.1584-8.1712 5.3282-12.421 7.689-2.848 1.5822-6.1254 2.4056-8.8719 4.1402-4.7454 2.9971-12.265 5.6559-13.604 10.055-1.4214 4.6702 4.2614 11.313 5.3231 17.152 0.9098 5.0039-2.0711 11.917 0.59146 15.378 3.2521 4.2277 11.421 5.1567 17.152 7.689 2.7467 1.2136 5.6882 2.0675 8.2804 3.5488 2.928 1.6732 5.3704 4.2171 8.2804 5.9146 1.8217 1.0626 5.0094 0.80231 5.9146 2.3658 1.2635 2.1824 1.5278 6.3748 0.59146 8.8719-0.83799 2.2346-3.6534 4.5694-5.9146 5.3231-1.8791 0.62636-5.2679 0.22029-6.506-1.1829-1.7192-1.9484-0.47499-6.7447-2.3658-8.8719-2.8408-3.1959-7.7442-5.0075-11.829-7.0975-4.3926-2.2474-8.9501-5.0574-13.604-5.9146-2.8383-0.52285-5.9186 1.7744-8.8719 1.7744-2.7642 0-5.5671-2.0287-8.2804-1.7744-3.5956 0.33709-7.0098 3.0292-10.646 3.5488-3.2638 0.46626-6.7361-0.94704-10.055-0.59146-7.7218 0.82734-15.496 2.3086-23.067 4.1402-4.6528 1.1257-8.9634 3.7798-13.604 4.7317-3.0488 0.62539-6.4146-0.62539-9.4633 0-4.6402 0.95183-8.9242 4.0118-13.604 4.7317-5.5726 0.85732-11.588-1.1013-17.152 0-13.362 2.6446-26.127 9.0349-39.628 11.238-23.958 3.909-48.549 6.373-72.749 7.0975-8.7244 0.26121-17.503-2.2302-26.024-4.1402-2.9133-0.65298-5.3984-2.8282-8.2804-3.5488-3.4268-0.85671-7.1882-0.3925-10.646-1.1829-3.4422-0.7868-6.5896-3.029-10.055-3.5488-4.4209-0.66314-9.1436 0.49555-13.604 0-2.6375-0.29306-5.4884-0.95116-7.689-2.3658-3.3197-2.1341-9.2863-5.4622-8.8719-8.2804z" filter="url(#filter3714)" stroke="#888" stroke-width="1px" fill="url(#linearGradient3710)"/>
      <path id="path3712" filter="url(#filter3722)" d="m252.85 911.6c0.57132-3.8849 3.7943-5.0591 7.0975-9.4633 2.6114-3.4819 5.173-7.3112 8.5761-9.7591 7.8346-5.6354 16.571-7.7712 25.728-12.125 2.8685-1.3637 6.7932-2.0675 9.7591-2.9573 2.9487-0.88461 6.4816-2.7101 9.4633-3.5488 3.3272-0.93577 6.9422-3.315 10.351-4.1402 15.321-3.7093 31.014-7.3694 46.725-9.1676 17.016-1.9476 33.19-0.68998 50.274-0.29574 8.5459 0.19721 16.982 4.242 25.433 4.1402 7.9128-0.0953 15.768-4.8051 23.658-5.0274 6.1075-0.17204 12.181 2.7203 18.335 3.5488 4.0977 0.55161 7.1026-1.7454 11.238-1.4786 1.9767 0.12753 3.9992-2.0594 5.9146-2.3658 3.0134-0.48215 6.7105 2.7892 9.7591 2.3658 4.049-0.56235 8.1511-2.9806 12.125-3.8445 5.0952-1.1076 10.664-1.8349 15.674-3.5487 2.4822-0.84918 6.8414-2.3849 8.9303-3.7472 2.4456-1.595 2.3797-6.2974 4.969-7.7863 5.2968-3.0456 12.151-4.3476 17.448-7.3932 2.5894-1.4889 3.9928-4.2828 6.506-5.0274 2.8099-0.83256 6.4202-2.8604 8.8719-1.1829 1.2942 0.88554 2.2011 4.1441 1.1829 5.3231-2.7277 3.1584-8.1712 5.3282-12.421 7.689-2.848 1.5822-6.1254 2.4056-8.8719 4.1402-4.7454 2.9971-12.265 5.6559-13.604 10.055-1.4214 4.6702 4.2614 11.313 5.3231 17.152 0.9098 5.0039-2.0711 11.917 0.59146 15.378 3.2521 4.2277 11.421 5.1567 17.152 7.689 2.7467 1.2136 5.6882 2.0675 8.2804 3.5488 2.928 1.6732 5.3704 4.2171 8.2804 5.9146 1.8217 1.0626 5.0094 0.80231 5.9146 2.3658 1.2635 2.1824 1.5278 6.3748 0.59146 8.8719-0.83799 2.2346-3.6534 4.5694-5.9146 5.3231-1.8791 0.62636-5.2679 0.22029-6.506-1.1829-1.7192-1.9484-0.47499-6.7447-2.3658-8.8719-2.8408-3.1959-7.7442-5.0075-11.829-7.0975-4.3926-2.2474-8.9501-5.0574-13.604-5.9146-2.8383-0.52285-5.9186 1.7744-8.8719 1.7744-2.7642 0-5.5671-2.0287-8.2804-1.7744-3.5956 0.33709-7.0098 3.0292-10.646 3.5488-3.2638 0.46626-6.7361-0.94704-10.055-0.59146-7.7218 0.82734-15.496 2.3086-23.067 4.1402-4.6528 1.1257-8.9634 3.7798-13.604 4.7317-3.0488 0.62539-6.4146-0.62539-9.4633 0-4.6402 0.95183-8.9242 4.0118-13.604 4.7317-5.5726 0.85732-11.588-1.1013-17.152 0-13.362 2.6446-26.127 9.0349-39.628 11.238-23.958 3.909-48.549 6.373-72.749 7.0975-8.7244 0.26121-17.503-2.2302-26.024-4.1402-2.9133-0.65298-5.3984-2.8282-8.2804-3.5488-3.4268-0.85671-7.1882-0.3925-10.646-1.1829-3.4422-0.7868-6.5896-3.029-10.055-3.5488-4.4209-0.66314-9.1436 0.49555-13.604 0-2.6375-0.29306-5.4884-0.95116-7.689-2.3658-3.3197-2.1341-6.0333-4.8707-5.6188-7.689z" fill="url(#linearGradient3732)"/>
      <path id="path3734" filter="url(#filter3752)" fill="#eee" d="m265.75 910.02 20.771-12.829 10.997 0.61092 29.324-9.1638s9.1638 4.2764 12.829 4.8874c3.6655 0.61092 41.543-7.3311 41.543-7.3311h20.16l23.215-9.7747 11.608 7.942 30.546-7.942h10.997l28.102-7.3311 12.829 6.7201 12.829 1.8328 14.051-3.6655 7.3311 6.1092-1.2218 7.3311 5.4983 4.8874-12.829-5.4983-2.4437-4.8874-17.106 1.8328-18.939-4.8874-20.771 2.4437-14.662 5.4983-15.884-0.61093-18.939 7.3311-12.829-3.6655-21.993 3.6655-28.102 9.7748-17.106-6.1092-12.218 2.4437h-15.884l-17.106 7.942-11.608-1.2218h-17.106l-15.884 3.6655z"/>
      <path id="path3756" opacity=".5" filter="url(#filter3932)" d="m584.04 830.29c-0.69592-0.43331-2.6147-0.0147-3.3601 0.61092-0.6801 0.5708-19.255 12.462-18.939 13.135 0.29438 0.62555 19.9-9.1598 20.771-9.2402 0.7835-0.0723 1.9863-0.70104 2.2146-1.3746 0.28079-0.82832-0.0341-2.7243-0.68728-3.131z" fill="#eee"/>
      <path id="path3890" opacity=".5" d="m592.71 901.01c-0.69592-0.43331-3.5044 0.98173-4.2498 1.6074-0.6801 0.5708-19.255 12.462-18.939 13.135 0.29438 0.62555 20.645-7.7921 21.517-7.8725 0.7835-0.0723 4.6421-0.64724 4.8704-1.3208 0.28079-0.82832-2.5454-5.1422-3.1986-5.5489z" transform="matrix(.46524 .88519 -.88519 .46524 1120.2 -32.134)" filter="url(#filter3886)" fill="#eee"/>
    </g>
    <path id="path4154" opacity=".52245" style="color:#000000" d="m370.22 910.93c0 11.978-14.496 21.688-32.379 21.688-17.882 0-32.379-9.7099-32.379-21.688s14.496-21.688 32.379-21.688c17.882 0 32.379 9.7099 32.379 21.688z" transform="matrix(1.1415 0 0 1.2013 -48.389 -191.73)" filter="url(#filter4220)" fill="#816647"/>
  </g>
  <g id="layer4" transform="translate(-71.975 -822.68)">
    <path id="path3944" d="m407.48 856.87l-14.662-7.3311c-19.002-8.11-52.365-7.8595-65.98 12.218-11.04 9.6528-12.937 34.366-8.5529 47.041 4.9836 14.409 22.853 31.387 38.488 36.044 22.649 6.7466 55.883 8.1346 76.365-1.8328 18.399-8.9535 38.095-35.807 35.433-57.427-1.4595-11.855-17.226-23.962-29.935-29.935-7.6549-3.5978-23.215-3.2582-31.157 1.2218z" filter="url(#filter3970)" stroke="#565248" stroke-width="1px" fill="url(#radialGradient3952)"/>
    <path id="path4024" d="m366.55 862.37c8.6547 2.1382 17.284 1.396 22.299-3.971 6.1329-6.5645-12.481-8.6132-24.131-7.0256-12.721 1.7334-23.209 9.373-21.382 15.273 2.101 6.7846 18.999 8.1792 29.935 7.0256 12.504-1.3191 24.384-6.1656 34.212-15.578" filter="url(#filter4058)" stroke="#986601" stroke-linecap="round" stroke-width="1.9" fill="none"/>
    <path id="path4062" d="m436.81 858.09c-36.4 36.136-105.95 36.552-115.16 12.218" filter="url(#filter4108)" stroke="#986601" stroke-linecap="round" stroke-width="1.9" fill="none"/>
    <path id="path4112" d="m460.02 875.81c-9.3675 3.6655-19.941 5.1183-28.102 10.997-17.378 12.516-33.998 19.128-51.928 21.993-14.301 2.2849-30.389-0.7914-44.597-4.2764-7.3776-1.8096-13.44-7.7383-20.16-11.608" filter="url(#filter4134)" stroke="#986601" stroke-linecap="round" stroke-width="1.9" fill="none"/>
    <path id="path4138" d="m465.52 903.3c-12.626 4.8874-24.59 9.2977-37.266 14.051-13.39 5.0213-22.222 7.3025-36.655 9.1638-11.31 1.4586-27.95 2.365-39.099-0.00001-9.0112-1.9115-21.382-6.5165-29.935-10.386" filter="url(#filter4144)" stroke="#986601" stroke-linecap="round" stroke-width="1.9" fill="none"/>
    <path id="path4148" d="m455.75 922.24c-16.495 6.7201-32.405 16.541-49.485 20.16-13.67 2.897-28.883 1.6055-42.765-0.61092-10.351-1.6527-19.957-7.3311-29.935-10.997" filter="url(#filter4150)" stroke="#986601" stroke-linecap="round" stroke-width="1.9" fill="none"/>
    <path id="path3974" style="color:#000000" d="m428.26 906.05c0 4.8923-8.3423 8.8584-18.633 8.8584s-18.633-3.966-18.633-8.8584c0-4.8923 8.3423-8.8584 18.633-8.8584s18.633 3.966 18.633 8.8584z" transform="matrix(.99076 -.13566 .13566 .99076 -119.12 63.944)" filter="url(#filter4020)" fill="#eee"/>
  </g>
  <metadata>
    <rdf:RDF>
      <cc:Work>
        <dc:format>image/svg+xml</dc:format>
        <dc:type rdf:resource="http://purl.org/dc/dcmitype/StillImage"/>
        <cc:license rdf:resource="http://creativecommons.org/licenses/publicdomain/"/>
        <dc:publisher>
          <cc:Agent rdf:about="http://openclipart.org/">
            <dc:title>Openclipart</dc:title>
          </cc:Agent>
        </dc:publisher>
        <dc:title>snail</dc:title>
        <dc:date>2010-01-31T12:10:55</dc:date>
        <dc:description>A snail seen from above</dc:description>
        <dc:source>http://openclipart.org/detail/29145/snail-by-jantonalcor</dc:source>
        <dc:creator>
          <cc:Agent>
            <dc:title>jantonalcor</dc:title>
          </cc:Agent>
        </dc:creator>
        <dc:subject>
          <rdf:Bag>
            <rdf:li>animal</rdf:li>
            <rdf:li>caracol</rdf:li>
            <rdf:li>clip art</rdf:li>
            <rdf:li>clipart</rdf:li>
            <rdf:li>image</rdf:li>
            <rdf:li>media</rdf:li>
            <rdf:li>png</rdf:li>
            <rdf:li>public domain</rdf:li>
            <rdf:li>snail</rdf:li>
            <rdf:li>svg</rdf:li>
            <rdf:li>unchecked</rdf:li>
          </rdf:Bag>
        </dc:subject>
      </cc:Work>
      <cc:License rdf:about="http://creativecommons.org/licenses/publicdomain/">
        <cc:permits rdf:resource="http://creativecommons.org/ns#Reproduction"/>
        <cc:permits rdf:resource="http://creativecommons.org/ns#Distribution"/>
        <cc:permits rdf:resource="http://creativecommons.org/ns#DerivativeWorks"/>
      </cc:License>
    </rdf:RDF>
  </metadata>
</svg>
